/* XPM */
static char * wl_summary_delete_up_xpm[] = {
"32 32 8 1",
" 	c #BEFBBEFBBEFB s backgroundToolBarColor",
".	c #69A68E38EFBE",
"X	c #000000000000",
"o	c #9E798E3869A6",
"O	c #FFFFE38DB6DA",
"+	c #CF3CBAEA9658",
"@	c #59656595C71B",
"#	c #FFFFFFFFFFFF",
"                                ",
" XXXXXXXXXXXXXXXXXX             ",
" X################X             ",
" X#@@#    ########Xo            ",
" X#@@#############Xo            ",
" X####    ########Xo            ",
" X################Xo .....      ",
" X################Xo .....      ",
" X################Xo .....      ",
" X################Xo   ...      ",
" XXXXXXXXXXXXXXXXXXo   ...      ",
"  oooooooooooooooooo   ...      ",
"                     .......    ",
"           XXXXXX     .....     ",
"          XooooooX     ...      ",
"          XXXXXoooXXXXXX.X      ",
"         XOOOOOXXXooooooooX     ",
"        XO+++++OOOXXXXXXXoX     ",
"        XO++++++++OOOOO++XX     ",
"         XO++++++++++++++XX     ",
"         XO+++++++++++++++X     ",
"          XO++++++++++++++X     ",
"          XO++++++++++++++X     ",
"           XO+++++++++++++X     ",
"       XX  XXXXXXXXXXXXXXXX     ",
"      X  X                      ",
"      X      X  X  X  XX        ",
"       XX   XXX X  X X  X       ",
"         X X  X X  X XXXX       ",
"      X  X X  X  XX  X          ",
"       XX   XXXX XX   XX        ",
"                                "};
