/* XPM */
static char * wl_folder_jump_to_current_entity_up_xpm[] = {
"32 32 7 1",
" 	c #BEFBBEFBBEFB s backgroundToolBarColor",
"X	c #000000000000",
"o	c #9E798E3869A6",
"O	c #FFFFE38DB6DA",
"+	c #CF3CBAEA9658",
"@	c #59656595C71B",
"#	c #EFBEFFFFC71B",
"                                ",
"                                ",
"               XXXXXXXXXXXXXX   ",
"              X#############X   ",
"              X##     ######X   ",
"              X#############X   ",
"     XXXXXX   X##     ######X   ",
"    XooooooX X##############X   ",
"   XXXXXXoooXX#############X    ",
"  XOOOOOOXoooX#############X    ",
" XO++++++OXXXXXXXXXXXX#####X    ",
" XO+++++++OOOOOOOOOOOOX###X     ",
"  XO++++++++++++++++++X###X     ",
"  XO++++++++++++++++++X###X     ",
"  XO++++++++++++++++++XX##X     ",
"   XO++++++++++++++++++X##Xo    ",
"   XO++++++++++++++++++X##Xo    ",
"   XO++++++++++++++++++XXXXo    ",
"    XO++++++++++++++++++Xooo    ",
"    XO++++++++++++++++++Xo      ",
"    XO++++++++++++++++++Xo      ",
"     XXXXXXXXXXXXXXXXXXXXo      ",
"        oooooooooooooooooo      ",
"                                ",
"                                ",
"        XX             XX       ",
"    X   X X  X X  XX  X    X    ",
"    XX  X  X XX  XXX XXXX XXX   ",
" XXXXXX X  X X  X  X  X    X    ",
"    XX  X X  X  X  X  X    X    ",
"    X   XX   X   XXX  X    XX   ",
"                                "};
