#define wl-logo_width 464
#define wl-logo_height 160
static char wl-logo_bits[] = {
 0x00,0x00,0x00,0x00,0x00,0x00,0x00,0x00,0x00,0x00,0x00,0x00,0x00,0x00,0x00,
 0x00,0x00,0x00,0x00,0x00,0x00,0x00,0x00,0x00,0x00,0x00,0x00,0x08,0x00,0x00,
 0x00,0x00,0x00,0x00,0x00,0x00,0x00,0x00,0x00,0x00,0x00,0x00,0x00,0x00,0x00,
 0x00,0x00,0x00,0x00,0x00,0x00,0x00,0x00,0x00,0x00,0x00,0x00,0x00,0x00,0x00,
 0x00,0x00,0x00,0x00,0x00,0x00,0x00,0x00,0x00,0x00,0x00,0x00,0x00,0x00,0x00,
 0x00,0x00,0x00,0x00,0x00,0x00,0x00,0x00,0x00,0x00,0x14,0x00,0x00,0x00,0x00,
 0x00,0x00,0x00,0x00,0x00,0x00,0x00,0x00,0x00,0x00,0x00,0x00,0x00,0x00,0x00,
 0x00,0x00,0x00,0x00,0x00,0x00,0x00,0x00,0x00,0x00,0x00,0x00,0x00,0x00,0x00,
 0x00,0x00,0x00,0x00,0x00,0x00,0x00,0x00,0x00,0x00,0x00,0x00,0x00,0x00,0x00,
 0x00,0x00,0x00,0x00,0x00,0x00,0x00,0x80,0x16,0x00,0x00,0x00,0x00,0x00,0x00,
 0x00,0x00,0x00,0x00,0x00,0x00,0x00,0x00,0x00,0x00,0x00,0x00,0x00,0x00,0x00,
 0x00,0x00,0x00,0x00,0x00,0x00,0x00,0x00,0x00,0x00,0x00,0x00,0x00,0x00,0x00,
 0x00,0x00,0x00,0x00,0x00,0x00,0x00,0x00,0x00,0x00,0x00,0x00,0x00,0x00,0x00,
 0x00,0x00,0x00,0x00,0x00,0x00,0x29,0x00,0x00,0x00,0x00,0x00,0x00,0x00,0x00,
 0x00,0x00,0x00,0x00,0x00,0x00,0x00,0x00,0x00,0x00,0x00,0x00,0x00,0x00,0x00,
 0x00,0x00,0x00,0x00,0x00,0x00,0x00,0x00,0x00,0x00,0x00,0x00,0x00,0x00,0x00,
 0x00,0x00,0x00,0x00,0x00,0x00,0x00,0x00,0x00,0x00,0x00,0x00,0x00,0x00,0x00,
 0x00,0x00,0x00,0x00,0x14,0x00,0x00,0x00,0x00,0x00,0x00,0x00,0x00,0x00,0x00,
 0x00,0x00,0x00,0x00,0x00,0x00,0x00,0x00,0x00,0x00,0x00,0x00,0x00,0x00,0x00,
 0x00,0x00,0x00,0x00,0x00,0x00,0x00,0x00,0x00,0x00,0x00,0x00,0x00,0x00,0x00,
 0x00,0x00,0x00,0x00,0x00,0x00,0x00,0x00,0x00,0x00,0x00,0x00,0x00,0x00,0x00,
 0x80,0x02,0x20,0x00,0x00,0x00,0x00,0x00,0x00,0x00,0x00,0x00,0x00,0x00,0x00,
 0x00,0x00,0x00,0x00,0x00,0x00,0x00,0x00,0x00,0x00,0x00,0x00,0x00,0x00,0x00,
 0x00,0x00,0x00,0x00,0x00,0x00,0x00,0x00,0x00,0x00,0x00,0x00,0x00,0x00,0x00,
 0x00,0x00,0x00,0x00,0x00,0x00,0x00,0x00,0x00,0x00,0x00,0x00,0x00,0xa0,0x0a,
 0x50,0x04,0x00,0x00,0x00,0x00,0x00,0x00,0x00,0x00,0x00,0x00,0x00,0x00,0x00,
 0x00,0x00,0x00,0x00,0x00,0x00,0x00,0x00,0x00,0x00,0x00,0x00,0x00,0x00,0x00,
 0x00,0x00,0x00,0x00,0x00,0x00,0x00,0x00,0x00,0x18,0x00,0x00,0x00,0x00,0x00,
 0x00,0x00,0x00,0x00,0x00,0x00,0x00,0x00,0x00,0x00,0x00,0x80,0x2a,0x42,0xa9,
 0x00,0x00,0x00,0x00,0x00,0x00,0x00,0x00,0x00,0x00,0x00,0x00,0x00,0x00,0x00,
 0x00,0x00,0x00,0x00,0x00,0x00,0x00,0x00,0x00,0x00,0x00,0x00,0x00,0x00,0x00,
 0x00,0x00,0x00,0x00,0x00,0x00,0x00,0x36,0x00,0x00,0x00,0x00,0x00,0x00,0x00,
 0x00,0x00,0x00,0x00,0x00,0x00,0x00,0x00,0x00,0x80,0xaa,0x54,0x02,0x2a,0x00,
 0x00,0x00,0x00,0x00,0x00,0x00,0x00,0x00,0x00,0x00,0x00,0x00,0x00,0x00,0x00,
 0x00,0x00,0x00,0x00,0x00,0x00,0x00,0x00,0x00,0x00,0x00,0x00,0x00,0x00,0x00,
 0x00,0x00,0x00,0x00,0x00,0x7d,0x00,0x00,0x00,0x00,0x00,0x00,0x00,0x00,0x00,
 0x00,0x00,0x00,0x00,0x00,0x00,0x20,0xa0,0x6a,0xa2,0xa8,0x84,0x02,0x00,0x00,
 0x00,0x00,0x00,0x00,0x00,0x00,0x00,0x00,0x00,0x00,0x00,0x00,0x00,0x00,0x00,
 0x00,0x00,0x00,0x00,0x00,0x00,0x00,0x00,0x00,0x00,0x00,0x00,0x00,0x00,0x00,
 0x00,0x00,0x00,0x6b,0x00,0x00,0x00,0x00,0x00,0x00,0x00,0x00,0x00,0x00,0x00,
 0x00,0x00,0x00,0x00,0xaa,0x4a,0x55,0x55,0x05,0x21,0x28,0x00,0x00,0x00,0x00,
 0x00,0x00,0x00,0x00,0x00,0x00,0x00,0x00,0x00,0x00,0x00,0x00,0x00,0x00,0x00,
 0x00,0x00,0x00,0x00,0x00,0x00,0x00,0x00,0x00,0x00,0x00,0x00,0x00,0x00,0x00,
 0xc0,0x7d,0x00,0x00,0x00,0x00,0x00,0x00,0x00,0x00,0x00,0x00,0x00,0x00,0x00,
 0x00,0x00,0xaa,0x22,0x55,0xc9,0x50,0x94,0x82,0x00,0x00,0x00,0x00,0x00,0x00,
 0x00,0x00,0x00,0x00,0x00,0x00,0x00,0x00,0x00,0x00,0x00,0x00,0x00,0x00,0x00,
 0x00,0x00,0x00,0x00,0x00,0x00,0x00,0x00,0x00,0x00,0x00,0x00,0x00,0x60,0x6b,
 0x00,0x00,0x00,0x00,0x00,0x00,0x00,0x00,0x00,0x00,0x00,0x00,0x00,0x00,0x80,
 0x52,0x4d,0xaa,0xa2,0x0a,0x41,0x28,0x04,0x00,0x00,0x00,0x00,0x00,0x00,0x00,
 0x00,0x00,0x00,0x00,0x00,0x00,0x00,0x00,0x00,0x00,0x00,0x00,0x00,0x00,0x00,
 0x00,0x00,0x00,0x00,0x00,0x00,0x00,0x00,0x00,0x00,0x00,0xb8,0x7d,0x00,0x00,
 0x00,0x00,0x00,0x00,0x00,0x00,0x00,0x00,0x00,0x00,0x00,0x00,0x80,0x8a,0x2a,
 0x49,0x4d,0x51,0x14,0x82,0x12,0x00,0x00,0x00,0x00,0x00,0x00,0x00,0x00,0x00,
 0x00,0x00,0x00,0x00,0x00,0x00,0x00,0x00,0x00,0x00,0x00,0x00,0x00,0x00,0x00,
 0x00,0x00,0x00,0x00,0x00,0x00,0x00,0x00,0x00,0x6c,0x6b,0x00,0x00,0x00,0x00,
 0x00,0x00,0x00,0x00,0x00,0x00,0x00,0x00,0x00,0x00,0x80,0x52,0x94,0x94,0x54,
 0x85,0x42,0x49,0x40,0x01,0x00,0x00,0x00,0x00,0x00,0x00,0x00,0x00,0x00,0x00,
 0x00,0x00,0x00,0x00,0x00,0x00,0x00,0x00,0x00,0x00,0x00,0x00,0x00,0x00,0x00,
 0x00,0x00,0x00,0x00,0x00,0x00,0x00,0xda,0x7d,0x00,0x00,0x00,0x00,0x00,0x00,
 0x00,0x00,0x00,0x00,0x00,0x00,0x00,0x00,0x40,0xa5,0x2a,0x55,0xaa,0x22,0x10,
 0x22,0x14,0x00,0x00,0x00,0x00,0x00,0x00,0x00,0x00,0x00,0x00,0x00,0x00,0x00,
 0x00,0x00,0x00,0x00,0x00,0x00,0x00,0x00,0x00,0x00,0x00,0x00,0x00,0x00,0x00,
 0x00,0x00,0x00,0x00,0x80,0x6d,0x6b,0x00,0x00,0x00,0x00,0x00,0x00,0x00,0x00,
 0x00,0x00,0x00,0x00,0x00,0x14,0xa0,0x12,0xa9,0x28,0x55,0x95,0x8a,0x88,0x42,
 0x0a,0x00,0x00,0x00,0x00,0x00,0x00,0x00,0x00,0x00,0x00,0x00,0x00,0x00,0x00,
 0x00,0x00,0x00,0x00,0x00,0x00,0x00,0x00,0x00,0x00,0x00,0x00,0x00,0x00,0x00,
 0x00,0x00,0x80,0xb6,0x7d,0x00,0x00,0x00,0x00,0x00,0x00,0x00,0x00,0x00,0x00,
 0x00,0x00,0x80,0x2a,0x54,0xa9,0x54,0xaa,0x50,0x45,0x20,0x22,0x88,0x10,0x00,
 0x00,0x00,0x00,0x00,0x00,0x00,0x00,0x00,0x00,0x00,0x00,0x00,0x00,0x00,0x00,
 0x00,0x00,0x00,0x00,0x00,0x00,0x00,0x00,0x00,0x00,0x00,0x00,0x00,0x00,0x00,
 0xe0,0x7b,0x6b,0x00,0x00,0x00,0x00,0x00,0x00,0x00,0x00,0x00,0x00,0x00,0x00,
 0x20,0x15,0x52,0x45,0x52,0x25,0x5a,0x15,0x95,0x08,0x11,0x22,0x00,0x00,0x00,
 0x00,0x00,0x00,0x00,0x00,0x00,0x00,0x00,0x00,0x00,0x00,0x00,0x00,0x00,0x00,
 0x00,0x00,0x00,0x00,0x00,0x00,0x00,0x00,0x00,0x00,0x00,0x00,0x00,0xb0,0xd6,
 0x7d,0x00,0x00,0x00,0x00,0x00,0x00,0x00,0x00,0x00,0x00,0x00,0x00,0x50,0x45,
 0xa9,0x29,0x51,0x50,0xa1,0x8a,0x20,0x42,0x42,0x84,0x00,0x00,0x00,0x00,0x00,
 0x00,0x00,0x00,0x00,0x00,0x00,0x00,0x00,0x00,0x00,0x00,0x00,0x00,0x00,0x00,
 0x00,0x00,0x00,0x00,0x00,0x00,0x00,0x00,0x00,0x00,0x00,0xdc,0xbb,0x76,0x00,
 0x00,0x00,0x00,0x00,0x40,0x01,0x00,0x00,0x00,0x00,0x00,0x50,0x25,0x95,0x94,
 0xaa,0xaa,0x54,0x55,0x8a,0x28,0x08,0x48,0x01,0x00,0x00,0x00,0x00,0x00,0x00,
 0x00,0x00,0x00,0x00,0x00,0x00,0x00,0x00,0x00,0x00,0x00,0x00,0x00,0x00,0x00,
 0x00,0x00,0x00,0x00,0x00,0x00,0x00,0x00,0x00,0x6b,0xdd,0x7b,0x00,0x00,0x00,
 0x00,0x00,0xa0,0x0a,0x00,0x00,0x00,0x00,0x00,0x28,0x94,0x48,0x43,0xa4,0x62,
 0x82,0x0a,0x21,0x82,0x42,0x01,0x02,0x00,0x00,0x00,0x00,0x00,0x00,0x00,0x00,
 0x00,0x00,0x00,0x00,0x00,0x00,0x00,0x00,0x00,0x00,0x00,0x00,0x00,0x00,0x00,
 0x00,0x00,0x00,0x00,0x00,0x00,0x80,0xbd,0xb7,0x76,0x00,0x00,0x00,0x00,0x00,
 0x58,0x15,0x00,0x00,0x00,0x00,0x00,0x00,0x54,0x25,0xa9,0xa2,0x94,0xa9,0x4a,
 0x88,0x28,0x10,0x48,0x06,0x00,0x00,0x00,0x00,0x00,0x00,0x00,0x00,0x00,0x00,
 0x00,0x00,0x00,0x00,0x00,0x00,0x00,0x00,0x00,0x00,0x00,0x00,0x00,0x00,0x00,
 0x00,0x00,0x00,0x00,0xe0,0xd6,0xda,0x3b,0x00,0x00,0x00,0x00,0x00,0xac,0x36,
 0x00,0x00,0x00,0x00,0x14,0x00,0xaa,0xaa,0x15,0xa9,0xa2,0x16,0x24,0x25,0x82,
 0x8a,0x02,0x08,0x00,0x00,0x00,0x00,0x00,0x00,0x00,0x00,0x00,0x00,0x00,0x00,
 0x00,0x00,0x00,0x00,0x00,0x00,0x00,0x00,0x00,0x00,0x00,0x00,0x00,0x00,0x00,
 0x00,0x00,0xb8,0x7b,0x6f,0x3d,0x00,0x00,0x00,0x00,0x00,0xd6,0x6a,0x00,0x00,
 0x00,0x80,0x2a,0x80,0x4a,0x48,0xa6,0xd4,0x54,0x49,0x89,0x80,0x28,0x20,0xa8,
 0x0a,0x00,0x00,0x00,0x00,0x00,0x00,0x00,0x00,0x00,0x00,0x00,0x00,0x00,0x00,
 0x00,0x00,0x00,0x00,0x00,0x00,0x00,0x00,0x00,0x00,0x00,0x00,0x00,0x00,0x00,
 0xd6,0xde,0xda,0x36,0x00,0x00,0x00,0x00,0x80,0xab,0x6a,0x00,0x00,0x00,0x50,
 0x15,0x40,0xad,0x26,0x29,0x45,0x59,0x2d,0x22,0x54,0x82,0x0a,0x01,0x10,0x00,
 0x00,0x00,0x00,0x00,0x00,0x00,0x00,0x00,0x00,0x00,0x00,0x00,0x00,0x00,0x00,
 0x00,0x00,0x00,0x00,0x00,0x00,0x00,0x00,0x00,0x00,0x00,0x00,0x00,0x7b,0x6b,
 0xb7,0x3d,0x00,0x00,0x00,0x00,0x40,0xda,0xd6,0x00,0x00,0x00,0x28,0x54,0xa0,
 0x2a,0xa9,0x86,0xbc,0xbf,0xc2,0x9f,0x02,0x28,0x40,0x88,0x24,0x00,0x00,0x00,
 0x00,0x00,0x00,0x00,0x00,0x00,0x00,0x00,0x00,0x00,0x00,0x00,0x00,0x00,0x00,
 0x00,0x00,0x00,0x00,0x00,0x00,0x00,0x00,0x00,0x00,0xe0,0xd6,0xbd,0xed,0x1e,
 0x00,0x00,0x00,0x00,0x40,0xab,0xea,0x00,0x00,0x00,0x20,0x20,0x28,0xa9,0x24,
 0xf9,0x6f,0x00,0x00,0xe0,0xa8,0x02,0x29,0x22,0x60,0x00,0x00,0x00,0x00,0x00,
 0x00,0x00,0x00,0x00,0x00,0x00,0x00,0x00,0x00,0x00,0x00,0x00,0x00,0x00,0x00,
 0x00,0x00,0x00,0x00,0x00,0x00,0x00,0x00,0xd8,0x7d,0xd7,0xbb,0x1d,0x00,0x00,
 0x00,0x00,0xb0,0xaa,0xea,0x00,0x00,0x00,0x10,0x50,0xaa,0xaa,0x92,0x76,0x20,
 0x00,0x00,0x00,0x06,0x50,0x82,0x08,0x49,0x00,0x00,0x00,0x00,0x00,0x00,0x00,
 0x00,0x00,0x00,0x00,0x00,0x00,0x00,0x00,0x00,0x00,0x00,0x00,0x00,0x00,0x00,
 0x00,0x00,0x00,0x00,0x00,0x00,0x77,0xd7,0x7a,0x6d,0x1f,0x00,0x00,0x00,0x00,
 0xa0,0xb5,0xed,0x00,0x00,0x00,0x08,0x20,0x94,0x54,0xd5,0xaf,0x50,0x00,0x00,
 0x00,0xb0,0x0a,0x20,0x20,0x82,0x00,0x00,0x00,0x00,0x00,0x00,0x00,0x00,0x00,
 0x00,0x00,0x00,0x00,0x00,0x00,0x00,0x00,0x00,0x00,0x00,0x00,0x00,0x00,0x00,
 0x00,0x00,0x00,0xe0,0xba,0x7b,0xaf,0xdb,0x0e,0x00,0x00,0x00,0x00,0xd8,0x56,
 0x75,0x00,0x00,0x00,0x14,0x80,0x4a,0xaa,0xf8,0x50,0x15,0x00,0x00,0x00,0x80,
 0xa0,0x0a,0x45,0xa8,0x01,0x00,0x00,0x00,0x00,0x00,0x00,0x00,0x00,0x00,0x00,
 0x00,0x00,0x00,0x00,0x00,0x00,0x00,0x00,0x00,0x00,0x00,0x00,0x00,0x00,0xc0,
 0x01,0xbe,0xdf,0xd6,0xf5,0x76,0x0f,0x00,0x00,0x00,0x00,0xa8,0xaa,0x6a,0x00,
 0x50,0x01,0x08,0xa0,0x52,0xa9,0x1f,0xa0,0x0a,0x00,0x00,0x00,0x00,0x0a,0xa0,
 0x00,0x01,0x01,0x00,0x00,0x00,0x00,0x00,0x00,0x00,0x00,0x00,0x00,0x00,0x00,
 0x00,0x00,0x00,0x00,0x00,0x00,0x00,0x00,0x00,0x00,0x00,0x00,0xc0,0xfe,0xd5,
 0xea,0xbd,0x5e,0xaf,0x07,0x00,0x00,0x00,0x00,0x56,0x75,0x75,0x00,0x54,0x05,
 0x10,0x40,0x4a,0x55,0x07,0x80,0x0a,0x00,0x00,0x00,0x00,0xa0,0x0a,0x2a,0x44,
 0x03,0x00,0x00,0x00,0x00,0x00,0x00,0x00,0x00,0x00,0x00,0x00,0x00,0x00,0x00,
 0x00,0x00,0x00,0x00,0x00,0x00,0x00,0x00,0x00,0x00,0x80,0x57,0xff,0x5f,0xd7,
 0xeb,0xfa,0x07,0x00,0x00,0x00,0x00,0xea,0x56,0x7b,0x00,0x52,0x05,0x20,0x70,
 0x55,0x72,0x01,0x00,0x00,0x00,0x00,0x00,0x00,0x00,0x40,0x80,0x10,0x03,0x00,
 0x00,0x00,0x00,0x00,0x00,0x00,0x00,0x00,0x00,0x00,0x00,0x00,0x00,0x00,0x00,
 0x00,0x00,0x00,0x00,0x00,0x00,0x00,0x00,0x80,0xfa,0x55,0xf5,0x7b,0xbd,0xad,
 0x03,0x00,0x00,0x00,0x00,0x5b,0x55,0x35,0x80,0x0a,0x0a,0x50,0x95,0x4a,0x3d,
 0x01,0x00,0x00,0x00,0x00,0x00,0x00,0x40,0x12,0x12,0x02,0x06,0x00,0x00,0x00,
 0x00,0x00,0x00,0x00,0x00,0x00,0x00,0x00,0x00,0x00,0x00,0x00,0x00,0x00,0x00,
 0x00,0x00,0x00,0x00,0x00,0x00,0x80,0x5f,0xff,0x5f,0xad,0x6b,0xf7,0x01,0x00,
 0x00,0x00,0x00,0x55,0x5b,0x3d,0x80,0x02,0x08,0xa0,0xaa,0xaa,0x8f,0x35,0x00,
 0x00,0x00,0x00,0x00,0x00,0x00,0x84,0x40,0x48,0x06,0x00,0x00,0x00,0x00,0x00,
 0x00,0x00,0x00,0x00,0x00,0x00,0x00,0x00,0x00,0x00,0x00,0x00,0x00,0x00,0x00,
 0x00,0x00,0x00,0x00,0x80,0xf6,0xab,0xea,0xff,0xdd,0xed,0x00,0x00,0x00,0x00,
 0x80,0x6d,0xd5,0x1a,0xc2,0x02,0x10,0x40,0x6b,0xd5,0x83,0x4a,0x00,0x00,0x00,
 0x00,0x00,0x00,0x00,0x21,0x0a,0x01,0x04,0x00,0x00,0x00,0x00,0x00,0x00,0x00,
 0x00,0x00,0x00,0x00,0x00,0x00,0x00,0x00,0x00,0x00,0x00,0x00,0x00,0x00,0x00,
 0x00,0x00,0x00,0xbd,0xfe,0xbf,0xaa,0x6e,0x7b,0x00,0x00,0x00,0x00,0x60,0xb5,
 0xaa,0x5e,0x01,0x02,0x08,0x80,0x54,0xf5,0xa0,0x2a,0x00,0x00,0x00,0x00,0x00,
 0x00,0x00,0x88,0x20,0x24,0x0d,0x00,0x00,0x00,0x00,0x00,0x00,0x00,0x00,0x00,
 0x00,0x00,0x00,0x00,0x00,0x00,0x00,0x00,0x00,0x00,0x00,0x00,0x00,0x00,0x00,
 0x00,0xd7,0x57,0xd5,0x7d,0xb7,0x3d,0x00,0x00,0x00,0x00,0xa0,0xd6,0xb6,0x5e,
 0x05,0x05,0x14,0x00,0x95,0x3a,0xa0,0x0a,0x00,0x00,0x00,0x00,0x00,0x00,0x00,
 0x10,0x82,0x00,0x0c,0x00,0x00,0x00,0x00,0x00,0x00,0x00,0x00,0x00,0x00,0x00,
 0x00,0x00,0x00,0x00,0x00,0x00,0x00,0x00,0x00,0x00,0x00,0x00,0x00,0x00,0xfe,
 0xfa,0x7f,0xd7,0x7a,0x1f,0x00,0x00,0x00,0x00,0x50,0x5b,0x55,0xa7,0x02,0x04,
 0x08,0xa0,0x52,0x1f,0xa8,0x02,0x00,0x00,0x00,0x00,0x00,0x00,0x00,0x40,0x10,
 0xa8,0x0c,0x00,0x00,0x00,0x00,0x00,0x00,0x00,0x00,0x00,0x00,0x00,0x00,0x00,
 0x00,0x00,0x00,0x00,0x00,0x00,0x00,0x00,0x00,0x00,0x00,0x00,0x5a,0x5f,0xd5,
 0xfa,0xd7,0x0f,0x00,0x00,0x00,0x00,0xe8,0xaa,0xad,0x51,0x05,0x08,0x15,0xa0,
 0xaa,0x03,0x50,0x00,0x00,0x00,0x00,0x00,0x00,0x00,0x00,0x10,0x85,0x02,0x08,
 0x00,0x00,0x00,0x00,0x00,0x00,0x00,0x00,0x00,0x00,0x00,0x00,0x00,0x00,0x00,
 0x00,0x00,0x00,0x00,0x00,0x00,0x00,0x00,0x00,0x00,0xf6,0xeb,0xbf,0xaf,0xba,
 0x07,0x00,0x00,0x00,0x00,0x28,0x6b,0xb5,0x0c,0x04,0xa8,0x0a,0x90,0xca,0x0b,
 0x10,0x00,0x00,0x00,0x00,0x00,0x00,0x00,0x00,0x40,0x20,0x10,0x19,0x00,0x00,
 0x00,0x00,0x00,0x00,0x00,0x00,0x00,0x00,0x00,0x00,0x00,0x00,0x00,0x00,0x00,
 0x00,0x00,0x00,0x00,0x00,0x00,0x00,0x00,0x5c,0xbd,0x6a,0xb5,0xef,0x01,0x00,
 0x00,0x00,0x00,0xd4,0xb5,0xaa,0x02,0x0a,0xa8,0x0a,0x54,0xf5,0x00,0x00,0x00,
 0x00,0x00,0x00,0x00,0x00,0x00,0x00,0x00,0x0a,0x42,0x18,0x00,0x00,0x00,0x00,
 0x00,0x00,0x00,0x00,0x00,0x00,0x00,0x00,0x00,0x00,0x00,0x00,0x00,0x00,0x00,
 0x00,0x00,0x00,0x00,0x00,0x00,0xf4,0xef,0xff,0xef,0xfa,0x00,0x00,0x00,0x00,
 0x00,0x6a,0xd6,0x56,0x01,0x00,0xa8,0x0a,0xaa,0x7a,0x07,0x00,0x00,0x00,0x00,
 0x00,0x00,0x00,0x00,0x00,0x80,0xa0,0x08,0x1a,0x00,0x00,0x00,0x00,0x00,0x00,
 0x00,0x00,0x00,0x00,0x00,0x00,0x00,0x00,0x00,0x00,0x00,0x00,0x00,0x00,0x00,
 0x00,0x00,0x00,0x00,0xb8,0xba,0xaa,0x7a,0x3f,0x00,0x00,0x00,0x00,0x00,0x5a,
 0xab,0x7a,0x81,0x00,0x50,0x15,0xa9,0x9a,0x00,0x00,0x00,0x00,0x00,0x00,0x00,
 0x00,0x00,0x00,0x00,0x04,0x40,0x18,0x00,0x00,0x00,0x00,0x00,0x00,0x00,0x00,
 0x00,0x00,0x00,0x00,0x00,0x00,0x00,0x00,0x00,0x00,0x00,0x00,0x00,0x00,0x00,
 0x00,0x00,0xe0,0xef,0xff,0xaf,0x0f,0x00,0x00,0x00,0x00,0x00,0xad,0xad,0x3a,
 0x01,0x01,0x50,0xa8,0x54,0xab,0x06,0x00,0x00,0x00,0x00,0x00,0x00,0x00,0x00,
 0x00,0x00,0x91,0x12,0x19,0x00,0x00,0x00,0x00,0x00,0x00,0x00,0x00,0x00,0x00,
 0x00,0x00,0x00,0x00,0x00,0x00,0x00,0x00,0x00,0x00,0x00,0x00,0x00,0x00,0x00,
 0x60,0x7b,0x55,0xf5,0x03,0x00,0x00,0x00,0x00,0x80,0x6a,0x55,0x1d,0x42,0x01,
 0x40,0xa0,0xaa,0xaa,0x00,0x00,0x00,0x00,0x00,0x00,0x00,0x00,0x00,0x00,0x00,
 0x04,0x00,0x10,0x00,0x00,0x00,0x00,0x00,0x00,0x00,0x00,0x00,0x00,0x00,0x00,
 0x00,0x00,0x00,0x00,0x00,0x00,0x00,0x00,0x00,0x00,0x00,0x00,0x00,0xc0,0xae,
 0xff,0xee,0x01,0x00,0x00,0x00,0x00,0x80,0xb6,0xb5,0x0f,0xaa,0x02,0x20,0x50,
 0xd5,0x15,0x01,0x00,0x00,0x00,0x00,0x00,0x00,0x00,0x00,0x00,0x00,0x50,0x49,
 0x1a,0x00,0x00,0x00,0x00,0x00,0x00,0x00,0x00,0x00,0x00,0x00,0x00,0x00,0x00,
 0x00,0x00,0x00,0x00,0x00,0x00,0x00,0x00,0x00,0x00,0x00,0x00,0xfb,0xaa,0x7b,
 0x00,0x00,0x00,0x00,0x00,0x80,0xaa,0x56,0x07,0xaa,0x00,0x40,0xa0,0xea,0x0a,
 0x00,0x00,0x00,0x00,0x00,0x00,0x00,0x00,0x00,0x00,0x00,0x02,0x02,0x3a,0x00,
 0x00,0x00,0x00,0x00,0x00,0x00,0x00,0x00,0xa8,0x00,0x00,0x00,0x00,0x00,0x00,
 0x00,0x00,0x00,0x00,0x00,0x00,0x00,0x00,0x00,0x00,0x5c,0xff,0x3e,0x00,0x00,
 0x00,0x00,0x00,0xc0,0x55,0xb5,0x03,0xaa,0x02,0x40,0xa8,0x75,0x00,0x00,0x00,
 0x00,0x00,0x00,0x00,0x00,0x00,0x00,0x00,0x00,0x48,0x28,0x35,0x00,0x00,0x00,
 0x00,0x00,0x00,0x00,0x00,0x00,0x90,0x01,0x00,0x00,0x00,0x00,0x00,0x00,0x00,
 0x00,0x00,0x00,0x00,0x00,0x00,0x00,0x00,0xe0,0x57,0x1f,0x00,0x00,0x00,0x00,
 0x00,0xa0,0xaa,0x6d,0x01,0x54,0x01,0x80,0xa8,0x3a,0x00,0x00,0x00,0x00,0x00,
 0x00,0x00,0x00,0x00,0x00,0x00,0x00,0x02,0x01,0x35,0x00,0x00,0x00,0x00,0x00,
 0x00,0x00,0x00,0x00,0xc4,0x01,0x00,0x00,0x00,0x00,0x00,0x00,0x00,0x00,0x00,
 0x00,0x00,0x00,0x00,0x00,0x00,0x00,0xfc,0x07,0x00,0x00,0x00,0x00,0x00,0x50,
 0xd5,0xf6,0x00,0x94,0x82,0xa0,0x54,0x1d,0x00,0x00,0x00,0x00,0x00,0x00,0x00,
 0x00,0x00,0x00,0x00,0x00,0x20,0xc8,0x2a,0x00,0x00,0x00,0x00,0x00,0x00,0x00,
 0x00,0x00,0x92,0x01,0x00,0x00,0x00,0x00,0x00,0x00,0x00,0x00,0x00,0x00,0x00,
 0x00,0x00,0x00,0x00,0x00,0xaa,0x07,0x00,0x00,0x00,0x00,0x00,0x60,0x57,0x3d,
 0x01,0x04,0x40,0x40,0x55,0x0f,0x00,0x00,0x00,0x00,0x00,0x00,0x00,0x00,0x00,
 0x00,0x00,0x00,0x08,0x41,0x75,0x00,0x00,0x00,0x00,0x00,0x00,0x00,0x00,0x00,
 0xc8,0x01,0x00,0x00,0x00,0x00,0x00,0x00,0x00,0x00,0x00,0x00,0x00,0x00,0x00,
 0x00,0x00,0x00,0xfc,0x01,0x00,0x00,0x00,0x00,0x00,0xb0,0xb5,0xde,0x00,0x10,
 0x40,0xa1,0xaa,0x07,0x00,0x00,0x00,0x00,0x00,0x00,0x00,0x00,0x00,0x00,0x00,
 0x00,0x22,0xa4,0x6a,0x00,0x00,0x00,0x00,0x00,0x00,0x00,0x00,0x00,0xa5,0x01,
 0x00,0x00,0x00,0x00,0x00,0x00,0x00,0x00,0x00,0x00,0x00,0x00,0x00,0x00,0x00,
 0x00,0xd7,0x01,0x00,0x00,0x00,0x00,0x00,0x58,0xad,0x0f,0x01,0x08,0x80,0x80,
 0xaa,0x03,0x00,0x00,0x00,0x00,0x00,0x00,0x00,0x00,0x00,0x00,0x00,0x00,0x88,
 0x50,0x75,0x00,0x00,0x00,0x00,0x00,0x00,0x00,0x00,0x80,0x90,0x01,0x00,0x00,
 0x00,0x00,0x00,0x00,0x00,0x00,0x00,0x00,0x00,0x00,0x00,0x00,0x00,0x80,0xfd,
 0x00,0x00,0x00,0x00,0x00,0x00,0xd4,0x56,0xc3,0x00,0x28,0x00,0xc1,0xea,0x01,
 0x00,0x00,0x00,0x00,0x00,0x00,0x00,0x00,0x00,0x00,0x00,0x00,0x00,0x52,0x75,
 0x00,0x00,0x00,0x00,0x00,0x00,0x00,0x00,0x00,0xa5,0x01,0x00,0x00,0x00,0x00,
 0x00,0x00,0x00,0x00,0x00,0x00,0x00,0x00,0x00,0x00,0x00,0x40,0x7b,0x00,0x00,
 0x00,0x00,0x00,0x00,0xa8,0x7a,0x01,0x01,0x10,0x40,0x01,0xf5,0x00,0x00,0x00,
 0x00,0x00,0x00,0x00,0x00,0x00,0x00,0x00,0x00,0x00,0x50,0x50,0x35,0x00,0x00,
 0x00,0x00,0x00,0x00,0x00,0x00,0x80,0xc8,0x01,0x00,0x00,0x00,0x00,0x00,0x00,
 0x00,0x00,0x00,0x00,0x00,0x00,0x00,0x00,0x00,0xc0,0x3f,0x00,0x00,0x00,0x00,
 0x00,0x00,0x76,0xeb,0x82,0x00,0x20,0xb4,0x62,0x75,0x00,0x00,0x00,0x00,0x00,
 0x00,0x00,0x00,0x00,0x00,0x00,0x00,0x00,0x04,0xaa,0x3a,0x00,0x00,0x00,0x00,
 0x00,0x00,0x00,0x00,0x40,0xd2,0x00,0x00,0x00,0x00,0x00,0x00,0x00,0x00,0x00,
 0x00,0x00,0x00,0x00,0x00,0x00,0x00,0x40,0x1d,0x00,0x00,0x00,0x00,0x00,0x00,
 0xac,0x75,0x81,0x02,0x50,0xa9,0x90,0x3a,0x00,0x00,0x00,0x00,0x00,0x00,0x00,
 0x00,0x00,0x00,0x00,0x00,0x00,0xa0,0x54,0x35,0x00,0x00,0x00,0x00,0x00,0x00,
 0x00,0x00,0x20,0xc9,0x00,0x00,0x00,0x00,0x00,0x00,0x00,0x00,0x00,0x00,0x00,
 0x00,0x00,0x00,0x00,0x00,0xf0,0x0f,0x00,0x00,0x00,0x00,0x00,0x00,0xb6,0x7a,
 0x8a,0x00,0xa0,0xaa,0xd0,0x1e,0x00,0x00,0x00,0x00,0x00,0x00,0x00,0x00,0x00,
 0x00,0x00,0x00,0x00,0x08,0xaa,0x3a,0x00,0x00,0x00,0x00,0x00,0x00,0x00,0x00,
 0x90,0xc4,0x00,0x00,0x00,0x00,0x00,0x00,0x00,0x00,0x00,0x00,0x00,0x80,0x18,
 0x00,0x00,0x00,0x58,0x07,0x00,0x00,0x00,0x00,0x00,0x00,0x55,0x37,0xaa,0x02,
 0xa8,0x0a,0xa0,0x0e,0x00,0x00,0x00,0x00,0x00,0x00,0x00,0x00,0x00,0x00,0x00,
 0x00,0x00,0x40,0xb4,0x3a,0x00,0x00,0x00,0x00,0x00,0x00,0x00,0x00,0x20,0xe9,
 0x00,0x00,0x00,0x00,0x00,0x00,0x00,0x00,0x00,0x00,0x00,0x00,0x1c,0x00,0x00,
 0x00,0xf0,0x03,0x00,0x00,0x00,0x34,0x00,0x00,0xbb,0x3d,0x54,0x01,0x50,0x05,
 0x58,0x07,0x00,0x00,0x00,0x00,0x00,0x00,0x00,0x00,0x00,0x00,0x00,0x00,0x00,
 0x10,0x4b,0x1d,0x00,0x00,0x00,0x00,0x00,0x00,0x00,0x00,0x88,0xe4,0x00,0x00,
 0x00,0x00,0x00,0x00,0x00,0x00,0x00,0x00,0x00,0x24,0x0c,0x00,0x00,0x00,0xdc,
 0x03,0x00,0x00,0x00,0x15,0x00,0x80,0xd6,0x1a,0xa8,0x00,0x40,0x00,0xa8,0x03,
 0x00,0x00,0x00,0x00,0x00,0x00,0x00,0x00,0x00,0x00,0x00,0x00,0x00,0x04,0xb5,
 0x1a,0x00,0x00,0x00,0x00,0x00,0x00,0x00,0x00,0x20,0x69,0x00,0x00,0x00,0x00,
 0x00,0x00,0x00,0x00,0x00,0x00,0x00,0x80,0x0e,0x00,0x00,0x00,0xf6,0x01,0x00,
 0x00,0x00,0xd5,0x00,0x80,0xab,0x1e,0xa0,0x02,0x00,0x00,0xaa,0x03,0x00,0x00,
 0x00,0x00,0x00,0x00,0x00,0x00,0x00,0x00,0x00,0x00,0x00,0xa0,0xaa,0x1e,0x00,
 0x00,0x00,0x00,0x00,0x00,0x00,0x00,0x54,0x72,0x00,0x00,0x00,0x00,0x00,0x00,
 0x00,0x00,0x00,0x00,0x00,0x08,0x06,0x00,0x00,0x00,0xfc,0x00,0x00,0x00,0x00,
 0x54,0x01,0xe0,0xdc,0x0e,0x40,0x01,0x00,0x00,0xd5,0x01,0x00,0x00,0x00,0x00,
 0x00,0x00,0x00,0x00,0x00,0x00,0x00,0x00,0x00,0x88,0xaa,0x0e,0x00,0x00,0x00,
 0x00,0x00,0x00,0x00,0x00,0x88,0x38,0x00,0x00,0x00,0x00,0x00,0x00,0x00,0x00,
 0x00,0x00,0x00,0x20,0x07,0x00,0x00,0x00,0x77,0x00,0x00,0x00,0x00,0x50,0x01,
 0x50,0x6b,0x0f,0x40,0x01,0x00,0x00,0xea,0x00,0x00,0x00,0x00,0x00,0x00,0x00,
 0x00,0x00,0x00,0x00,0x00,0x00,0x00,0xc0,0xaa,0x0e,0x00,0x00,0x00,0x00,0x00,
 0x00,0x00,0x00,0x52,0x3a,0x00,0x00,0x00,0x00,0x00,0x00,0x00,0x00,0x00,0x00,
 0x00,0x82,0x03,0x00,0x00,0x80,0x3d,0x00,0x00,0xc0,0x02,0xa8,0x02,0xa8,0xad,
 0x0e,0x40,0x01,0x00,0x00,0x75,0x00,0x00,0x00,0x00,0x00,0x00,0x00,0x00,0x00,
 0x00,0x00,0x00,0x00,0x00,0x50,0x55,0x07,0x00,0x00,0x00,0x00,0x00,0x00,0x00,
 0x00,0x09,0x1d,0x00,0x00,0x00,0x00,0x00,0x00,0x00,0x00,0x00,0x00,0x00,0xc0,
 0x01,0x00,0x00,0x40,0x3f,0x00,0x00,0x54,0x01,0xa8,0x02,0x76,0x75,0x07,0x00,
 0x01,0x00,0xc0,0x7a,0x00,0x00,0x00,0x00,0x00,0x00,0x00,0x00,0x00,0x00,0x00,
 0x00,0x00,0x00,0xa4,0x56,0x07,0x00,0x00,0x00,0x00,0x00,0x00,0x00,0x00,0x52,
 0x0e,0x00,0x00,0x00,0x00,0x00,0x00,0x00,0x00,0x00,0x00,0x80,0xe4,0x00,0x00,
 0x00,0xc0,0x1d,0x00,0x00,0x55,0x05,0x10,0x0a,0xad,0xab,0x07,0x00,0x00,0x00,
 0x80,0x3a,0x00,0x00,0x00,0x00,0x00,0x00,0x00,0x00,0x00,0x00,0x00,0x00,0x00,
 0x00,0x50,0x55,0x03,0x00,0x00,0x00,0x00,0x00,0x00,0x00,0x00,0x89,0x06,0x00,
 0x00,0x00,0x00,0x00,0x00,0x00,0x00,0x00,0x00,0x00,0x70,0x00,0x00,0x00,0x60,
 0x0f,0x00,0x40,0x15,0x02,0x20,0x88,0x6d,0x5d,0x03,0x00,0x00,0x00,0x40,0x1d,
 0x00,0x00,0x00,0x00,0x00,0x00,0x00,0x00,0x00,0x00,0x00,0x00,0x00,0x00,0x52,
 0x95,0x03,0x00,0x00,0x00,0x00,0x00,0x00,0x00,0x80,0x54,0x07,0x00,0x00,0x00,
 0x00,0x00,0x00,0x00,0x00,0x00,0x00,0x40,0x30,0x00,0x00,0x00,0xd0,0x0f,0x00,
 0x50,0x15,0x04,0x10,0xe8,0xb6,0xea,0x03,0x00,0x00,0x00,0xa0,0x1e,0x00,0x00,
 0x00,0x00,0x00,0x00,0x00,0x00,0x00,0x00,0x00,0x00,0x00,0x00,0x50,0x95,0x01,
 0x00,0x00,0x00,0x00,0x00,0x00,0x00,0x40,0xa2,0x03,0x00,0x00,0x00,0x00,0x00,
 0x00,0x00,0x90,0x01,0x00,0x00,0x3c,0x00,0x00,0x00,0xb8,0x07,0x00,0xa8,0x04,
 0x04,0x58,0xac,0xdf,0xad,0x03,0x00,0x00,0x00,0xd0,0x0e,0x00,0x00,0x00,0x00,
 0x00,0x00,0x00,0x00,0x00,0x00,0x00,0x00,0x00,0x00,0xaa,0xca,0x01,0x00,0x00,
 0x00,0x00,0xa0,0x00,0x00,0x80,0xd4,0x01,0x00,0x00,0x00,0x00,0x00,0x00,0x00,
 0xc0,0x01,0x00,0x20,0x1d,0x00,0x00,0x00,0xe8,0x03,0x10,0x10,0x10,0x00,0x40,
 0xa5,0xab,0xd6,0x01,0x00,0x00,0x00,0x20,0x07,0x00,0x00,0x38,0x00,0x00,0x00,
 0x00,0x00,0x00,0x00,0x00,0x00,0x00,0x00,0x68,0xc5,0x01,0x00,0x50,0x01,0x00,
 0xa8,0x01,0x00,0x20,0xe9,0x00,0x00,0x00,0x00,0x00,0x00,0x00,0x00,0xc8,0x00,
 0x00,0x00,0x0e,0x00,0x00,0x00,0xdc,0x03,0x54,0x28,0x08,0x00,0xb0,0xaa,0x77,
 0xeb,0x01,0x00,0x00,0x00,0xa8,0x07,0x00,0x00,0x56,0x00,0x00,0x00,0x00,0x00,
 0x00,0x00,0x00,0x00,0x00,0x00,0x54,0xd1,0x00,0x00,0x24,0x0d,0x00,0xe4,0x01,
 0x00,0x80,0x74,0x00,0x00,0x00,0x00,0x00,0x00,0x00,0x00,0xe2,0x00,0x00,0x10,
 0x07,0x00,0x00,0x00,0xf6,0x81,0x52,0x10,0x10,0x00,0x48,0x55,0xaa,0xdd,0x01,
 0x00,0x00,0x00,0xb4,0x03,0x00,0x00,0xfa,0x00,0x00,0x00,0x18,0x00,0x00,0x00,
 0x00,0x00,0x40,0x15,0x5a,0xe1,0x00,0x00,0x55,0x19,0x00,0xea,0x00,0x00,0x50,
 0x3a,0x00,0x00,0x24,0x00,0x00,0x00,0x00,0x80,0x40,0x00,0x88,0x84,0x03,0x00,
 0x00,0x00,0xfb,0x40,0xaa,0x20,0x10,0x00,0xa0,0x7e,0xdd,0xea,0x00,0x00,0x00,
 0x00,0xc8,0x03,0x00,0x00,0xd6,0x01,0x00,0x00,0x6a,0x00,0x00,0x00,0x00,0x00,
 0xec,0x0f,0x55,0x72,0x00,0xa0,0xaa,0x1a,0x00,0x69,0x00,0x00,0x28,0x1d,0x00,
 0x00,0x48,0x00,0x00,0x00,0x00,0x00,0x94,0x00,0x20,0x00,0x00,0x00,0x00,0x00,
 0xee,0x50,0x4b,0x20,0x20,0x00,0xb0,0x5d,0x65,0xad,0x00,0x00,0x00,0x00,0xd4,
 0x01,0x00,0xff,0xfd,0x01,0x00,0x80,0xf6,0x00,0x00,0x00,0x00,0x80,0xfa,0x00,
 0x54,0x70,0x00,0xa0,0x97,0x1a,0x40,0x55,0x00,0x00,0x40,0x0f,0x00,0x80,0xe2,
 0x00,0x00,0x00,0x00,0x80,0x40,0x01,0x00,0x24,0x00,0x0f,0x00,0x80,0x7b,0xaa,
 0x40,0x41,0x20,0x00,0x48,0x4f,0xb5,0xeb,0x01,0x00,0x00,0x00,0xea,0x00,0xf0,
 0x7a,0xd7,0x01,0x00,0x80,0x7b,0x00,0x2c,0x00,0x00,0xa0,0x1e,0x00,0x2b,0x39,
 0x00,0xc8,0xa9,0x1c,0x80,0x24,0x01,0x00,0x28,0x07,0x00,0x40,0xe8,0x00,0x00,
 0x15,0x00,0x20,0x04,0x02,0x10,0x81,0xf4,0x03,0x00,0x40,0x7f,0x54,0x80,0x20,
 0x40,0x00,0xd8,0x87,0x5a,0xb5,0x01,0x00,0x00,0x00,0xed,0x00,0xdc,0xc7,0xfb,
 0x00,0x00,0x60,0x6d,0x00,0xd7,0x00,0x00,0xa0,0x07,0x00,0x15,0x38,0x00,0x6a,
 0x50,0x1d,0x50,0x92,0x02,0x00,0xc8,0x03,0x00,0x80,0x62,0x00,0x80,0x30,0x00,
 0x80,0x48,0x06,0xf0,0xb0,0x7f,0x00,0x00,0xe0,0x3b,0x54,0x00,0x40,0x20,0x00,
 0xd7,0x03,0xd5,0xdd,0x01,0x00,0x00,0x00,0x75,0x00,0xf6,0x80,0x6e,0x00,0x00,
 0xb0,0x7b,0xc0,0xfa,0x00,0x00,0xd8,0x03,0x80,0x4a,0x1d,0x00,0x1a,0xa0,0x0e,
 0x40,0x55,0x19,0x00,0xe4,0x01,0x00,0x20,0x78,0x00,0x20,0x3a,0x00,0x08,0x00,
 0x04,0x00,0x34,0x00,0x00,0x00,0x40,0x3d,0x20,0x00,0x00,0x80,0x00,0xdd,0xc0,
 0xba,0x56,0x03,0x00,0x00,0x00,0x75,0xc0,0x7b,0x40,0x7b,0x00,0x00,0xd0,0x3d,
 0x40,0xab,0x01,0x00,0xee,0x01,0x40,0x05,0x0c,0x00,0x0d,0x50,0x07,0xa0,0x92,
 0x34,0x00,0x72,0x00,0x00,0x90,0x3a,0x00,0x88,0x18,0x00,0xc0,0x92,0x0c,0x00,
 0x38,0x00,0x00,0x00,0xf0,0x1a,0x20,0x00,0x00,0x40,0xc0,0xb7,0x80,0xd7,0xaa,
 0x03,0x00,0x00,0x00,0x35,0x60,0x1f,0x80,0xad,0x01,0x00,0xbc,0x1e,0xf0,0xd6,
 0x01,0x00,0xe9,0x00,0x80,0x42,0x0e,0x40,0x0f,0x88,0x03,0x50,0x4a,0x35,0x00,
 0x38,0x00,0x00,0x48,0x1e,0x00,0x20,0x1e,0x00,0x20,0x00,0x08,0x00,0x19,0x00,
 0x00,0x00,0xa8,0x0a,0x20,0x28,0x00,0x40,0x51,0x4d,0xc1,0x6c,0xdb,0x06,0x00,
 0x00,0x00,0x3d,0xd8,0x1e,0x00,0xf7,0x03,0x00,0xd4,0x1d,0x50,0xdb,0x01,0x80,
 0x76,0x00,0xc0,0x12,0x07,0x40,0x07,0xe4,0x01,0xc0,0x55,0x3a,0x00,0x3d,0x00,
 0x00,0x92,0x07,0x00,0x08,0x0f,0x00,0x08,0x4a,0x19,0x00,0x1c,0x00,0x00,0x00,
 0xaa,0x16,0x40,0x29,0x00,0x80,0xb8,0x5f,0x41,0xb7,0x6d,0x07,0x00,0x00,0xc0,
 0x1a,0xf4,0x0f,0x00,0xad,0x06,0x00,0xba,0x0e,0xbc,0xb5,0x01,0x80,0x7a,0x00,
 0x40,0x09,0x03,0x40,0x03,0xf8,0x00,0x04,0x28,0x1d,0x00,0x1c,0x00,0x00,0xc4,
 0x03,0x00,0xa0,0x07,0x00,0x00,0x00,0x18,0x80,0x0c,0x00,0x00,0x80,0xea,0x2d,
 0x40,0x55,0x00,0x00,0xd6,0xa7,0x80,0xda,0x56,0x0d,0x00,0x00,0x80,0x1e,0x5e,
 0x07,0x80,0xf9,0x07,0x00,0xd6,0x0f,0x70,0xdd,0x01,0xc0,0x35,0x00,0x50,0xc1,
 0x03,0xa0,0x43,0x3d,0x00,0x00,0xa0,0x0e,0x00,0x0d,0x00,0x00,0xf0,0x00,0x00,
 0xca,0x01,0x00,0x00,0x90,0x1c,0x20,0x0e,0x00,0x00,0x00,0xb5,0x17,0x40,0x55,
 0x00,0x00,0xfb,0x03,0xc0,0x55,0xb5,0x0d,0x00,0x00,0x40,0x0d,0xf4,0x07,0x80,
 0xac,0x0e,0x00,0xbb,0x06,0x89,0xab,0x01,0x20,0x3d,0x00,0xa0,0xa4,0x01,0x50,
 0xd5,0x0f,0x00,0x00,0x50,0x07,0x80,0x0e,0x00,0x00,0x6a,0x00,0x80,0xe0,0x00,
 0x00,0x00,0x00,0x1c,0x00,0x06,0x00,0x00,0x80,0xea,0x5e,0x80,0xaa,0x00,0x40,
 0xc9,0x01,0x40,0xb7,0xdb,0x1a,0x00,0x00,0xa0,0x0e,0x5f,0x07,0x40,0x70,0x0f,
 0x80,0xdd,0x07,0x00,0xdd,0x01,0xd0,0x35,0x00,0xac,0xc8,0x00,0xa0,0xff,0x00,
 0x00,0x00,0x80,0x03,0x00,0x0c,0x00,0x00,0x71,0x00,0x00,0x74,0x00,0x00,0x00,
 0x90,0x0c,0x00,0x06,0x00,0x00,0x00,0xb5,0x1f,0x00,0x05,0x00,0x60,0x75,0x00,
 0x80,0x6d,0x6d,0x1d,0x00,0x00,0x40,0x8f,0xf6,0x07,0x20,0xd8,0x0d,0x00,0x6b,
 0x07,0x80,0xaa,0x01,0xa0,0x36,0x00,0xa2,0xe1,0x00,0xa8,0x03,0x00,0x00,0x00,
 0xf0,0x01,0x80,0x0a,0x00,0x80,0x34,0x00,0x80,0x32,0x00,0x00,0x00,0x00,0x0e,
 0x48,0x06,0x00,0x00,0x80,0xf7,0x2d,0x00,0x01,0x00,0x58,0x35,0x00,0xc0,0xb6,
 0xaa,0x36,0x00,0x00,0x60,0x87,0xbd,0x06,0x18,0x6c,0x0f,0xc0,0xb6,0x03,0x80,
 0xf7,0x01,0x60,0x75,0x00,0x55,0x75,0x00,0xa8,0x01,0x00,0x00,0x00,0xc8,0x00,
 0x40,0x12,0x00,0x00,0x32,0x00,0x20,0x30,0x00,0x00,0x00,0x40,0x0e,0x00,0x04,
 0x00,0x00,0x40,0x55,0x2f,0x80,0x02,0x30,0x68,0x0b,0x00,0x00,0xdb,0x77,0x6b,
 0x00,0x00,0x50,0xc7,0xef,0x07,0x04,0xd8,0x0e,0x90,0xdd,0x03,0x80,0x2c,0x03,
 0xb8,0x56,0x40,0xb1,0x3a,0x00,0x50,0x03,0x00,0x40,0x00,0x70,0x00,0x08,0x29,
 0x00,0x80,0x64,0x00,0x40,0x35,0x00,0x00,0x00,0x00,0x07,0x90,0x0c,0x00,0x00,
 0xc0,0xeb,0x52,0x00,0x01,0x10,0xff,0x07,0x00,0x80,0x6d,0xaa,0x6d,0x00,0x00,
 0xa8,0x83,0xba,0x0e,0x16,0xbe,0x0f,0x48,0x6b,0x07,0x00,0xd7,0x03,0xab,0xb5,
 0x51,0xd5,0x1a,0x00,0xaa,0x06,0x00,0x00,0x00,0x6a,0x00,0xa0,0x0a,0x00,0x20,
 0x91,0x00,0x08,0x20,0x00,0x48,0x0a,0x00,0x03,0x00,0x10,0x00,0x00,0x60,0x5f,
 0x55,0x01,0x02,0xa0,0xd5,0x03,0x00,0x00,0xaa,0x5b,0xd5,0x00,0x00,0xa8,0xc3,
 0xef,0xf7,0x0b,0xea,0x06,0xf3,0xbd,0x15,0x80,0x6a,0x83,0x50,0xad,0xda,0x28,
 0x2b,0x80,0xa8,0x0a,0x00,0xa8,0x00,0x74,0x80,0x5a,0xa4,0x04,0x80,0x88,0x00,
 0x50,0x15,0x80,0x04,0x18,0xa0,0x03,0x40,0x04,0x00,0x08,0xc0,0xab,0x5a,0x01,
 0x02,0xa8,0xfe,0x00,0x00,0x00,0x77,0xd5,0xb6,0x01,0x00,0xd0,0xa3,0x75,0x5d,
 0x07,0x76,0x6f,0x4d,0xd7,0x0e,0x80,0x5d,0xed,0xbf,0xd5,0x6a,0x50,0x55,0x55,
 0xa6,0x2a,0x00,0x44,0x40,0x65,0x20,0x8e,0x92,0x92,0x68,0x52,0x84,0x0e,0x80,
 0x90,0x21,0x11,0xc0,0x01,0x10,0x10,0x00,0x07,0xf0,0xae,0x3a,0x05,0x88,0xd6,
 0x7b,0x00,0x00,0x00,0xac,0x6e,0xab,0x01,0x00,0xac,0x61,0xbf,0xf7,0x83,0xaf,
 0xdb,0xc7,0xba,0x07,0x80,0xb6,0xb5,0x53,0x6d,0x75,0xd5,0xaa,0xaa,0x5b,0xa9,
 0xaa,0x3a,0x80,0x52,0x89,0x07,0x49,0x24,0x1d,0x09,0x29,0x5f,0x55,0xe4,0x80,
 0x30,0xc0,0x00,0x04,0x81,0xa0,0x03,0xb0,0x5b,0x6f,0x02,0xa8,0xaa,0x1e,0x00,
 0x00,0x00,0x74,0x5b,0x6d,0x03,0x00,0xd0,0xe1,0xd5,0xfd,0x81,0x7a,0xed,0x61,
 0xd7,0x03,0x00,0x6b,0xeb,0xd8,0x56,0x3b,0x50,0xb5,0xea,0x51,0x55,0x55,0x1d,
 0x40,0x2a,0xd5,0x83,0x2a,0x49,0x4e,0x44,0x82,0x03,0x00,0x72,0x00,0x2a,0x68,
 0x00,0x20,0x04,0xc4,0x01,0xe8,0xaf,0xfa,0x05,0x54,0xf5,0x0f,0x00,0x00,0x00,
 0xa8,0xaa,0xb5,0x06,0x00,0xec,0xa1,0xff,0xf6,0x80,0xdd,0xfb,0xa0,0xfb,0x01,
 0x00,0x5d,0x7d,0xa8,0x5a,0x1d,0x55,0x55,0xf5,0xa8,0xaa,0x24,0x0f,0xa0,0x92,
 0xe4,0x81,0x90,0x92,0x07,0xa9,0xd4,0xa1,0xaa,0x3c,0x50,0x40,0x30,0x00,0x80,
 0x40,0x78,0x00,0xb8,0xba,0xb7,0x05,0xaa,0xba,0x03,0x00,0x00,0x00,0xb0,0xdb,
 0xd6,0x0e,0x00,0xd4,0xc0,0x56,0x3f,0x40,0xb7,0x3e,0x60,0xed,0x00,0x00,0xd5,
 0x3d,0x60,0x6b,0x8f,0xa0,0xd6,0x7a,0x50,0x55,0xd5,0x07,0x20,0xa9,0x72,0x00,
 0x4a,0xc8,0x83,0x04,0xe8,0x00,0x00,0x0e,0x00,0x12,0x1d,0x00,0x08,0x10,0x39,
 0x00,0xe8,0xaf,0xee,0x15,0x54,0xef,0x01,0x00,0x00,0x00,0x50,0xad,0x5a,0x0b,
 0x00,0xea,0xc0,0xfd,0x1f,0xc0,0xed,0x1f,0xc0,0x76,0x00,0x00,0xb6,0x1e,0x50,
 0xad,0x57,0x74,0x55,0x3d,0xa0,0x52,0xd5,0x01,0xa0,0x4a,0x3d,0x00,0x52,0xe5,
 0x00,0xa9,0x7a,0xa0,0xaa,0x07,0x80,0x40,0x0e,0x00,0x20,0x02,0x0e,0x00,0xbc,
 0x7d,0x7b,0xfb,0xf7,0x7b,0x00,0x00,0x00,0x00,0xe0,0x75,0x6b,0x1d,0x00,0xec,
 0x00,0xaf,0x07,0x40,0xbb,0x07,0x80,0x3d,0x00,0x00,0xda,0x07,0xc0,0xea,0x07,
 0xb9,0x55,0x0f,0x80,0xaa,0xf4,0x00,0x40,0x29,0x1e,0x00,0x88,0x7c,0x00,0x20,
 0x1c,0x00,0xc1,0x03,0x00,0x8a,0x07,0x00,0x80,0x90,0x07,0x00,0xf4,0xaf,0xae,
 0xad,0xba,0x3e,0x00,0x00,0x00,0x00,0x20,0xad,0xad,0x35,0x00,0x75,0x00,0xfc,
 0x01,0x80,0xf7,0x01,0x40,0x1f,0x00,0x00,0xec,0x03,0x40,0xfb,0x50,0x9e,0xaa,
 0x07,0x00,0x95,0x3e,0x00,0x00,0xa5,0x0f,0x00,0x28,0x1f,0x00,0x8a,0x0f,0x00,
 0xfa,0x00,0x80,0xf0,0x01,0x00,0x00,0xe2,0x01,0x00,0xbc,0xfa,0xfa,0xfa,0xdf,
 0x0f,0x00,0x00,0x00,0x00,0xc0,0x56,0xb5,0x2a,0x00,0x6a,0x00,0x00,0x00,0x00,
 0x3e,0x00,0x80,0x0f,0x00,0x00,0xf8,0x00,0x00,0x3f,0x02,0x0e,0xff,0x01,0x00,
 0xd6,0x0f,0x00,0x00,0xd5,0x03,0x00,0xe0,0x03,0x00,0xf8,0x01,0x00,0x3e,0x00,
 0x00,0x7e,0x00,0x00,0x00,0x7f,0x00,0x00,0xe8,0xdf,0x2e,0xad,0xea,0x07,0x00,
 0x00,0x00,0x00,0x00,0xdb,0xd6,0x76,0x00,0x75,0x00,0x00,0x00,0x00,0x00,0x00,
 0x00,0x02,0x00,0x00,0x00,0x00,0x00,0x00,0xa8,0x07,0x00,0x00,0x00,0xf0,0x01,
 0x00,0x00,0xfc,0x00,0x00,0x00,0x00,0x00,0x00,0x00,0x00,0x00,0x00,0x00,0x00,
 0x00,0x00,0x00,0x00,0x00,0x00,0xfc,0xf6,0xaa,0xfe,0xff,0x01,0x00,0x00,0x00,
 0x00,0x00,0xaa,0x5a,0xd5,0x00,0x76,0x00,0x00,0x00,0x00,0x00,0x00,0x00,0x00,
 0x00,0x00,0x00,0x00,0x00,0x00,0xc1,0x03,0x00,0x00,0x00,0x00,0x00,0x00,0x00,
 0x00,0x00,0x00,0x00,0x00,0x00,0x00,0x00,0x00,0x00,0x00,0x00,0x00,0x00,0x00,
 0x00,0x00,0x00,0x00,0xac,0xbb,0xaa,0x57,0x75,0x00,0x00,0x00,0x00,0x00,0x00,
 0x6c,0xab,0xad,0x81,0x3a,0x00,0x00,0x00,0x00,0x00,0x00,0x00,0x00,0x00,0x00,
 0x00,0x00,0x00,0x40,0xe4,0x00,0x00,0x00,0x00,0x00,0x00,0x00,0x00,0x00,0x00,
 0x00,0x00,0x00,0x00,0x00,0x00,0x00,0x00,0x00,0x00,0x00,0x00,0x00,0x00,0x00,
 0x00,0x00,0xf8,0xde,0xea,0xfa,0x3f,0x00,0x0c,0x03,0x00,0x00,0x00,0xab,0x55,
 0x55,0x03,0x35,0x00,0x00,0x00,0x00,0x18,0x1c,0x00,0x00,0x00,0x00,0x00,0x00,
 0x00,0x00,0x73,0x00,0x00,0x00,0x00,0x00,0x00,0x00,0x00,0x00,0x00,0x7c,0x00,
 0x00,0xc0,0x1f,0x00,0x00,0x00,0x00,0x00,0x00,0x00,0x00,0x00,0x00,0x00,0x00,
 0xbc,0x77,0xbd,0x5f,0x0f,0x00,0x08,0xe1,0xef,0x1f,0x80,0x57,0xef,0xf5,0xf3,
 0x7f,0x10,0xfe,0xf8,0x00,0x38,0x1c,0xfe,0x70,0xe0,0xc0,0x00,0x03,0x7f,0x50,
 0x7b,0x90,0x7f,0xfe,0xf8,0xc0,0x0f,0x03,0x0e,0x7f,0x00,0xc6,0x30,0x04,0x40,
 0x00,0x82,0xc0,0x80,0x83,0x83,0x3f,0x86,0x00,0x00,0x00,0x00,0x00,0xec,0xdd,
 0xee,0xf5,0x03,0x00,0x98,0xa1,0x44,0x0b,0x80,0xa4,0x56,0x3a,0x86,0x70,0x10,
 0x4a,0x48,0x01,0x28,0x0e,0x4a,0xac,0x58,0xc1,0xc1,0x0d,0x4b,0x00,0xda,0x10,
 0x2d,0x92,0x28,0x63,0x80,0x83,0x1b,0x49,0x00,0x83,0x31,0x04,0x40,0x00,0xc2,
 0xe0,0xe0,0x46,0x8d,0x29,0x86,0x00,0x00,0x00,0x00,0x00,0x74,0xf7,0xb7,0xfe,
 0x00,0x00,0x70,0x20,0x00,0x03,0x80,0xa4,0xcd,0x8c,0x8a,0x70,0x10,0x02,0x08,
 0x01,0x38,0x12,0x02,0x04,0x08,0x40,0x21,0x00,0x01,0x54,0x43,0x11,0x0c,0x02,
 0x08,0x21,0x80,0xc2,0x00,0x01,0x00,0x01,0x51,0x04,0xc0,0x07,0xc6,0xa1,0x30,
 0x40,0x80,0x00,0x8a,0x00,0x00,0x00,0x00,0x00,0xd8,0x5f,0xfd,0x3f,0x00,0x00,
 0x60,0xe0,0x03,0x01,0xc0,0x4c,0x59,0x8c,0x9a,0xdd,0x1f,0x3e,0xf8,0x01,0x48,
 0x1b,0x3e,0x78,0xf0,0x20,0x21,0x00,0x1f,0x82,0x43,0x11,0x04,0x3e,0xf8,0xe1,
 0x83,0x44,0x00,0x1f,0x00,0x01,0x91,0x04,0x40,0x06,0x24,0x20,0x11,0xc0,0x83,
 0x0f,0x92,0x00,0x00,0x00,0x00,0x00,0xf0,0xfa,0xaf,0x0f,0x00,0x00,0x20,0x20,
 0x01,0x03,0xc0,0x0b,0x53,0xad,0xf6,0x58,0x00,0x12,0x98,0x40,0x98,0x09,0x12,
 0xa0,0x41,0xa3,0x22,0x0e,0x13,0xe9,0x43,0x16,0x0c,0x16,0x88,0x20,0xc0,0x44,
 0x00,0x0b,0x00,0x81,0x11,0x05,0x40,0x00,0xaa,0x30,0x11,0x00,0x8c,0x05,0xa2,
 0x00,0x00,0x00,0x00,0x00,0xa0,0xdf,0xfa,0x01,0x00,0x00,0x20,0x20,0x00,0x03,
 0x20,0x08,0x69,0x8a,0xa2,0x58,0x10,0x02,0x88,0xa8,0x9a,0x18,0x02,0x00,0x01,
 0xb2,0x26,0x08,0x41,0x74,0x42,0x14,0x0c,0x02,0x88,0x61,0x40,0xcd,0x10,0x01,
 0x00,0x83,0x10,0x07,0x40,0x00,0x9a,0x51,0x33,0x04,0x88,0x00,0xe2,0x00,0x00,
 0x00,0x00,0x00,0x80,0xea,0x3f,0x00,0x00,0x00,0x20,0xe0,0x0f,0x03,0x20,0x10,
 0xd4,0xf8,0xa3,0x5d,0x10,0xfe,0x08,0x21,0x99,0x18,0xfe,0xdc,0xb8,0x11,0xc4,
 0x0d,0x77,0x3c,0x42,0x08,0x0c,0xfe,0x08,0x21,0x20,0x88,0x1f,0x7f,0x00,0xfc,
 0x10,0x04,0xc0,0x1f,0x90,0x08,0xe2,0xc7,0x8d,0x3f,0x82,0x00,0x00,0x00,0x00,
 0x00,0x00,0xfe,0x03,0x00,0x00,0x00,0x00,0x00,0x04,0x00,0x00,0x00,0x2a,0x06,
 0xa8,0x18,0x10,0x40,0x00,0xaa,0x0a,0x00,0x90,0x40,0x80,0x00,0x00,0x01,0x09,
 0x0f,0x02,0x10,0x00,0xa4,0x10,0x00,0x00,0x00,0x04,0x48,0x00,0x10,0x00,0x00,
 0x40,0x12,0x00,0x00,0x00,0x01,0x02,0x28,0x00,0x00,0x00,0x00,0x00,0x00,0x00,
 0x00,0x00,0x00,0x00,0x00,0x00,0x00,0x00,0x00,0x00,0x00,0xa8,0x58,0xaa,0x1c,
 0x00,0x00,0x00,0x51,0x45,0x01,0x00,0x00,0x00,0x00,0x00,0x00,0x20,0x07,0x00,
 0x00,0x00,0x00,0x00,0x00,0x00,0x00,0x00,0x00,0x00,0x00,0x00,0x00,0x00,0x00,
 0x00,0x00,0x00,0x00,0x00,0x00,0x00,0x00,0x00,0x00,0x00,0x00,0x00,0x00,0x00,
 0x00,0x00,0x00,0x00,0x00,0x00,0x00,0x00,0x00,0xb0,0x56,0xab,0x0e,0x00,0x00,
 0x00,0x2c,0xa9,0x0a,0x00,0x00,0x00,0x00,0x00,0x40,0xe2,0x01,0x00,0x00,0x00,
 0x00,0x00,0x00,0x00,0x00,0x00,0x00,0x00,0x00,0x00,0x00,0x00,0x00,0x00,0x00,
 0x00,0x00,0x00,0x00,0x00,0x00,0x00,0x00,0x00,0x00,0x00,0x00,0x00,0x00,0x00,
 0x00,0x00,0x00,0x00,0x00,0x00,0x00,0x40,0x55,0x55,0x0d,0x00,0x00,0x00,0xa3,
 0x4a,0x14,0x00,0x00,0x00,0x00,0x00,0x10,0x79,0x00,0x00,0x00,0x00,0x00,0x00,
 0x00,0x00,0x00,0x00,0x00,0x00,0x00,0x00,0x00,0x00,0x00,0x00,0x00,0x00,0x00,
 0x00,0x00,0x00,0x00,0x00,0x00,0x00,0x00,0x00,0x00,0x00,0x00,0x00,0x00,0x00,
 0x00,0x00,0x00,0x00,0x00,0x80,0x6b,0x6d,0x0d,0x00,0x00,0x80,0x54,0xaa,0x2a,
 0x00,0x00,0x00,0x00,0x00,0x84,0x3c,0x00,0x00,0x00,0x00,0x00,0x00,0x00,0x00,
 0x00,0x00,0x00,0x00,0x00,0x00,0x00,0x00,0x00,0x00,0x00,0x00,0x00,0x00,0x00,
 0x00,0x00,0x00,0x00,0x00,0x00,0x00,0x00,0x00,0x00,0x00,0x00,0x00,0x00,0x00,
 0x00,0x00,0x00,0x00,0xb5,0xaa,0x0e,0x00,0x00,0x80,0xaa,0x52,0x69,0x00,0x00,
 0x00,0x00,0x00,0x51,0x0f,0x00,0x00,0x00,0x00,0x00,0x00,0x00,0x00,0x00,0x00,
 0x00,0x00,0x00,0x00,0x00,0x00,0x00,0x00,0x00,0x00,0x00,0x00,0x00,0x00,0x00,
 0x00,0x00,0x00,0x00,0x00,0x00,0x00,0x00,0x00,0x00,0x00,0x00,0x00,0x00,0x00,
 0x00,0x00,0xac,0x55,0x0d,0x00,0x00,0x00,0x95,0x2a,0x55,0x00,0x00,0x00,0x00,
 0x40,0xc8,0x03,0x00,0x00,0x00,0x00,0x00,0x00,0x00,0x00,0x00,0x00,0x00,0x00,
 0x00,0x00,0x00,0x00,0x00,0x00,0x00,0x00,0x00,0x00,0x00,0x00,0x00,0x00,0x00,
 0x00,0x00,0x00,0x00,0x00,0x00,0x00,0x00,0x00,0x00,0x00,0x00,0x00,0x00,0x00,
 0xb4,0xae,0x0d,0x00,0x00,0x00,0xaa,0x94,0xa4,0x00,0x00,0x00,0x00,0x88,0xfa,
 0x00,0x00,0x00,0x00,0x00,0x00,0x00,0x00,0x00,0x00,0x00,0x00,0x00,0x00,0x00,
 0x00,0x00,0x00,0x00,0x00,0x00,0x00,0x00,0x00,0x00,0x00,0x00,0x00,0x00,0x00,
 0x00,0x00,0x00,0x00,0x00,0x00,0x00,0x00,0x00,0x00,0x00,0x00,0x00,0xd0,0xb2,
 0x1a,0x00,0x00,0x00,0xa5,0x52,0x55,0x01,0x00,0x00,0x00,0x20,0x3d,0x00,0x00,
 0x00,0x00,0x00,0x00,0x00,0x00,0x00,0x00,0x00,0x00,0x00,0x00,0x00,0x00,0x00,
 0x00,0x00,0x00,0x00,0x00,0x00,0x00,0x00,0x00,0x00,0x00,0x00,0x00,0x00,0x00,
 0x00,0x00,0x00,0x00,0x00,0x00,0x00,0x00,0x00,0x00,0x00,0x50,0xdb,0x1a,0x00,
 0x00,0x00,0xaa,0x4a,0xa5,0x02,0x00,0x00,0x40,0x95,0x0f,0x00,0x00,0x00,0x00,
 0x00,0x00,0x00,0x00,0x00,0x00,0x00,0x00,0x00,0x00,0x00,0x00,0x00,0x00,0x00,
 0x00,0x00,0x00,0x00,0x00,0x00,0x00,0x00,0x00,0x00,0x00,0x00,0x00,0x00,0x00,
 0x00,0x00,0x00,0x00,0x00,0x00,0x00,0x00,0x00,0x40,0x55,0x35,0x00,0x00,0x00,
 0x54,0xaa,0x54,0x0a,0x00,0x00,0x24,0xf2,0x01,0x00,0x00,0x00,0x00,0x00,0x00,
 0x00,0x00,0x00,0x00,0x00,0x00,0x00,0x00,0x00,0x00,0x00,0x00,0x00,0x00,0x00,
 0x00,0x00,0x00,0x00,0x00,0x00,0x00,0x00,0x00,0x00,0x00,0x00,0x00,0x00,0x00,
 0x00,0x00,0x00,0x00,0x00,0x00,0x00,0x80,0x56,0x6b,0x00,0x00,0x00,0x48,0x29,
 0x25,0x15,0x00,0x40,0x12,0x7d,0x00,0x00,0x00,0x00,0x00,0x00,0x00,0x00,0x00,
 0x00,0x00,0x00,0x00,0x00,0x00,0x00,0x00,0x00,0x00,0x00,0x00,0x00,0x00,0x00,
 0x00,0x00,0x00,0x00,0x00,0x00,0x00,0x00,0x00,0x00,0x00,0x00,0x00,0x00,0x00,
 0x00,0x00,0x00,0x00,0x00,0x00,0x5a,0x75,0x00,0x00,0x00,0x40,0xa5,0xaa,0xa2,
 0x52,0x2a,0xc9,0x0f,0x00,0x00,0x00,0x00,0x00,0x00,0x00,0x00,0x00,0x00,0x00,
 0x00,0x00,0x00,0x00,0x00,0x00,0x00,0x00,0x00,0x00,0x00,0x00,0x00,0x00,0x00,
 0x00,0x00,0x00,0x00,0x00,0x00,0x00,0x00,0x00,0x00,0x00,0x00,0x00,0x00,0x00,
 0x00,0x00,0x00,0x00,0xaa,0xd5,0x00,0x00,0x00,0x80,0x55,0x52,0x2a,0x29,0x49,
 0xfa,0x01,0x00,0x00,0x00,0x00,0x00,0x00,0x00,0x00,0x00,0x00,0x00,0x00,0x00,
 0x00,0x00,0x00,0x00,0x00,0x00,0x00,0x00,0x00,0x00,0x00,0x00,0x00,0x00,0x00,
 0x00,0x00,0x00,0x00,0x00,0x00,0x00,0x00,0x00,0x00,0x00,0x00,0x00,0x00,0x00,
 0x00,0x00,0xb4,0xd6,0x00,0x00,0x00,0x00,0xae,0x4a,0x95,0x8a,0xa4,0x1f,0x00,
 0x00,0x00,0x00,0x00,0x00,0x00,0x00,0x00,0x00,0x00,0x00,0x00,0x00,0x00,0x00,
 0x00,0x00,0x00,0x00,0x00,0x00,0x00,0x00,0x00,0x00,0x00,0x00,0x00,0x00,0x00,
 0x00,0x00,0x00,0x00,0x00,0x00,0x00,0x00,0x00,0x00,0x00,0x00,0x00,0x00,0x00,
 0xd0,0xaa,0x01,0x00,0x00,0x00,0xe0,0x29,0x51,0xa4,0xfa,0x03,0x00,0x00,0x00,
 0x00,0x00,0x00,0x00,0x00,0x00,0x00,0x00,0x00,0x00,0x00,0x00,0x00,0x00,0x00,
 0x00,0x00,0x00,0x00,0x00,0x00,0x00,0x00,0x00,0x00,0x00,0x00,0x00,0x00,0x00,
 0x00,0x00,0x00,0x00,0x00,0x00,0x00,0x00,0x00,0x00,0x00,0x00,0x00,0xa8,0xda,
 0x01,0x00,0x00,0x00,0x00,0xfc,0xab,0xfa,0x1f,0x00,0x00,0x00,0x00,0x00,0x00,
 0x00,0x00,0x00,0x00,0x00,0x00,0x00,0x00,0x00,0x00,0x00,0x00,0x00,0x00,0x00,
 0x00,0x00,0x00,0x00,0x00,0x00,0x00,0x00,0x00,0x00,0x00,0x00,0x00,0x00,0x00,
 0x00,0x00,0x00,0x00,0x00,0x00,0x00,0x00,0x00,0x00,0x00,0x50,0x55,0x03,0x00,
 0x00,0x00,0x00,0x00,0xf8,0x1f,0x00,0x00,0x00,0x00,0x00,0x00,0x00,0x00,0x00,
 0x00,0x00,0x00,0x00,0x00,0x00,0x00,0x00,0x00,0x00,0x00,0x00,0x00,0x00,0x00,
 0x00,0x00,0x00,0x00,0x00,0x00,0x00,0x00,0x00,0x00,0x00,0x00,0x00,0x00,0x00,
 0x00,0x00,0x00,0x00,0x00,0x00,0x00,0x00,0x00,0xa8,0xaa,0x03,0x00,0x00,0x00,
 0x00,0x00,0x00,0x00,0x00,0x00,0x00,0x00,0x00,0x00,0x00,0x00,0x00,0x00,0x00,
 0x00,0x00,0x00,0x00,0x00,0x00,0x00,0x00,0x00,0x00,0x00,0x00,0x00,0x00,0x00,
 0x00,0x00,0x00,0x00,0x00,0x00,0x00,0x00,0x00,0x00,0x00,0x00,0x00,0x00,0x00,
 0x00,0x00,0x00,0x00,0x00,0x00,0x00,0xd0,0x56,0x03,0x00,0x00,0x00,0x00,0x00,
 0x00,0x00,0x00,0x00,0x00,0x00,0x00,0x00,0x00,0x00,0x00,0x00,0x00,0x00,0x00,
 0x00,0x00,0x00,0x00,0x00,0x00,0x00,0x00,0x00,0x00,0x00,0x00,0x00,0x00,0x00,
 0x00,0x00,0x00,0x00,0x00,0x00,0x00,0x00,0x00,0x00,0x00,0x00,0x00,0x00,0x00,
 0x00,0x00,0x00,0x00,0x00,0xb8,0xaa,0x06,0x00,0x00,0x00,0x00,0x00,0x00,0x00,
 0x00,0x00,0x00,0x00,0x00,0x00,0x00,0x00,0x00,0x00,0x00,0x00,0x00,0x00,0x00,
 0x00,0x00,0x00,0x00,0x00,0x00,0x00,0x00,0x00,0x00,0x00,0x00,0x00,0x00,0x00,
 0x00,0x00,0x00,0x00,0x00,0x00,0x00,0x00,0x00,0x00,0x00,0x00,0x00,0x00,0x00,
 0x00,0x00,0x00,0xa0,0x5a,0x07,0x00,0x00,0x00,0x00,0x00,0x00,0x00,0x00,0x00,
 0x00,0x00,0x00,0x00,0x00,0x00,0x00,0x00,0x00,0x00,0x00,0x00,0x00,0x00,0x00,
 0x00,0x00,0x00,0x00,0x00,0x00,0x00,0x00,0x00,0x00,0x00,0x00,0x00,0x00,0x00,
 0x00,0x00,0x00,0x00,0x00,0x00,0x00,0x00,0x00,0x00,0x00,0x00,0x00,0x00,0x00,
 0x00,0x58,0xab,0x06,0x00,0x00,0x00,0x00,0x00,0x00,0x00,0x00,0x00,0x00,0x00,
 0x00,0x00,0x00,0x00,0x00,0x00,0x00,0x00,0x00,0x00,0x00,0x00,0x00,0x00,0x00,
 0x00,0x00,0x00,0x00,0x00,0x00,0x00,0x00,0x00,0x00,0x00,0x00,0x00,0x00,0x00,
 0x00,0x00,0x00,0x00,0x00,0x00,0x00,0x00,0x00,0x00,0x00,0x00,0x00,0x00,0x68,
 0x55,0x0d,0x00,0x00,0x00,0x00,0x00,0x00,0x00,0x00,0x00,0x00,0x00,0x00,0x00,
 0x00,0x00,0x00,0x00,0x00,0x00,0x00,0x00,0x00,0x00,0x00,0x00,0x00,0x00,0x00,
 0x00,0x00,0x00,0x00,0x00,0x00,0x00,0x00,0x00,0x00,0x00,0x00,0x00,0x00,0x00,
 0x00,0x00,0x00,0x00,0x00,0x00,0x00,0x00,0x00,0x00,0x00,0x00,0x50,0xb5,0x0e,
 0x00,0x00,0x00,0x00,0x00,0x00,0x00,0x00,0x00,0x00,0x00,0x00,0x00,0x00,0x00,
 0x00,0x00,0x00,0x00,0x00,0x00,0x00,0x00,0x00,0x00,0x00,0x00,0x00,0x00,0x00,
 0x00,0x00,0x00,0x00,0x00,0x00,0x00,0x00,0x00,0x00,0x00,0x00,0x00,0x00,0x00,
 0x00,0x00,0x00,0x00,0x00,0x00,0x00,0x00,0x00,0x00,0xa8,0x56,0x0d,0x00,0x00,
 0x00,0x00,0x00,0x00,0x00,0x00,0x00,0x00,0x00,0x00,0x00,0x00,0x00,0x00,0x00,
 0x00,0x00,0x00,0x00,0x00,0x00,0x00,0x00,0x00,0x00,0x00,0x00,0x00,0x00,0x00,
 0x00,0x00,0x00,0x00,0x00,0x00,0x00,0x00,0x00,0x00,0x00,0x00,0x00,0x00,0x00,
 0x00,0x00,0x00,0x00,0x00,0x00,0x00,0x00,0xd0,0xaa,0x0a,0x00,0x00,0x00,0x00,
 0x00,0x00,0x00,0x00,0x00,0x00,0x00,0x00,0x00,0x00,0x00,0x00,0x00,0x00,0x00,
 0x00,0x00,0x00,0x00,0x00,0x00,0x00,0x00,0x00,0x00,0x00,0x00,0x00,0x00,0x00,
 0x00,0x00,0x00,0x00,0x00,0x00,0x00,0x00,0x00,0x00,0x00,0x00,0x00,0x00,0x00,
 0x00,0x00,0x00,0x00,0x00,0x00,0x50,0xb5,0x1d,0x00,0x00,0x00,0x00,0x00,0x00,
 0x00,0x00,0x00,0x00,0x00,0x00,0x00,0x00,0x00,0x00,0x00,0x00,0x00,0x00,0x00,
 0x00,0x00,0x00,0x00,0x00,0x00,0x00,0x00,0x00,0x00,0x00,0x00,0x00,0x00,0x00,
 0x00,0x00,0x00,0x00,0x00,0x00,0x00,0x00,0x00,0x00,0x00,0x00,0x00,0x00,0x00,
 0x00,0x00,0x00,0x00,0xa0,0xaa,0x1a,0x00,0x00,0x00,0x00,0x00,0x00,0x00,0x00,
 0x00,0x00,0x00,0x00,0x00,0x00,0x00,0x00,0x00,0x00,0x00,0x00,0x00,0x00,0x00,
 0x00,0x00,0x00,0x00,0x00,0x00,0x00,0x00,0x00,0x00,0x00,0x00,0x00,0x00,0x00,
 0x00,0x00,0x00,0x00,0x00,0x00,0x00,0x00,0x00,0x00,0x00,0x00,0x00,0x00,0x00,
 0x00,0x00,0xd0,0x56,0x1d,0x00,0x00,0x00,0x00,0x00,0x00,0x00,0x00,0x00,0x00,
 0x00,0x00,0x00,0x00,0x00,0x00,0x00,0x00,0x00,0x00,0x00,0x00,0x00,0x00,0x00,
 0x00,0x00,0x00,0x00,0x00,0x00,0x00,0x00,0x00,0x00,0x00,0x00,0x00,0x00,0x00,
 0x00,0x00,0x00,0x00,0x00,0x00,0x00,0x00,0x00,0x00,0x00,0x00,0x00,0x00,0x00,
 0xa0,0xaa,0x1a,0x00,0x00,0x00,0x00,0x00,0x00,0x00,0x00,0x00,0x00,0x00,0x00,
 0x00,0x00,0x00,0x00,0x00,0x00,0x00,0x00,0x00,0x00,0x00,0x00,0x00,0x00,0x00,
 0x00,0x00,0x00,0x00,0x00,0x00,0x00,0x00,0x00,0x00,0x00,0x00,0x00,0x00,0x00,
 0x00,0x00,0x00,0x00,0x00,0x00,0x00,0x00,0x00,0x00,0x00,0x00,0x00,0xc0,0x6a,
 0x35,0x00,0x00,0x00,0x00,0x00,0x00,0x00,0x00,0x00,0x00,0x00,0x00,0x00,0x00,
 0x00,0x00,0x00,0x00,0x00,0x00,0x00,0x00,0x00,0x00,0x00,0x00,0x00,0x00,0x00,
 0x00,0x00,0x00,0x00,0x00,0x00,0x00,0x00,0x00,0x00,0x00,0x00,0x00,0x00,0x00,
 0x00,0x00,0x00,0x00,0x00,0x00,0x00,0x00,0x00,0x00,0x00,0x60,0xad,0x3a,0x00,
 0x00,0x00,0x00,0x00,0x00,0x00,0x00,0x00,0x00,0x00,0x00,0x00,0x00,0x00,0x00,
 0x00,0x00,0x00,0x00,0x00,0x00,0x00,0x00,0x00,0x00,0x00,0x00,0x00,0x00,0x00,
 0x00,0x00,0x00,0x00,0x00,0x00,0x00,0x00,0x00,0x00,0x00,0x00,0x00,0x00,0x00,
 0x00,0x00,0x00,0x00,0x00,0x00,0x00,0x00,0x00,0x40,0x55,0x35,0x00,0x00,0x00,
 0x00,0x00,0x00,0x00,0x00,0x00,0x00,0x00,0x00,0x00,0x00,0x00,0x00,0x00,0x00,
 0x00,0x00,0x00,0x00,0x00,0x00,0x00,0x00,0x00,0x00,0x00,0x00,0x00,0x00,0x00,
 0x00,0x00,0x00,0x00,0x00,0x00,0x00,0x00,0x00,0x00,0x00,0x00,0x00,0x00,0x00,
 0x00,0x00,0x00,0x00,0x00,0x00,0x00,0xa0,0x6a,0x3b,0x00,0x00,0x00,0x00,0x00,
 0x00,0x00,0x00,0x00,0x00,0x00,0x00,0x00,0x00,0x00,0x00,0x00,0x00,0x00,0x00,
 0x00,0x00,0x00,0x00,0x00,0x00,0x00,0x00,0x00,0x00,0x00,0x00,0x00,0x00,0x00,
 0x00,0x00,0x00,0x00,0x00,0x00,0x00,0x00,0x00,0x00,0x00,0x00,0x00,0x00,0x00,
 0x00,0x00,0x00,0x00,0x00,0x80,0x55,0x35,0x00,0x00,0x00,0x00,0x00,0x00,0x00,
 0x00,0x00,0x00,0x00,0x00,0x00,0x00,0x00,0x00,0x00,0x00,0x00,0x00,0x00,0x00,
 0x00,0x00,0x00,0x00,0x00,0x00,0x00,0x00,0x00,0x00,0x00,0x00,0x00,0x00,0x00,
 0x00,0x00,0x00,0x00,0x00,0x00,0x00,0x00,0x00,0x00,0x00,0x00,0x00,0x00,0x00,
 0x00,0x00,0x00,0xc0,0xaa,0x3a,0x00,0x00,0x00,0x00,0x00,0x00,0x00,0x00,0x00,
 0x00,0x00,0x00,0x00,0x00,0x00,0x00,0x00,0x00,0x00,0x00,0x00,0x00,0x00,0x00,
 0x00,0x00,0x00,0x00,0x00,0x00,0x00,0x00,0x00,0x00,0x00,0x00,0x00,0x00,0x00,
 0x00,0x00,0x00,0x00,0x00,0x00,0x00,0x00,0x00,0x00,0x00,0x00,0x00,0x00,0x00,
 0x00,0x00,0x5b,0x35,0x00,0x00,0x00,0x00,0x00,0x00,0x00,0x00,0x00,0x00,0x00,
 0x00,0x00,0x00,0x00,0x00,0x00,0x00,0x00,0x00,0x00,0x00,0x00,0x00,0x00,0x00,
 0x00,0x00,0x00,0x00,0x00,0x00,0x00,0x00,0x00,0x00,0x00,0x00,0x00,0x00,0x00,
 0x00,0x00,0x00,0x00,0x00,0x00,0x00,0x00,0x00,0x00,0x00,0x00,0x00,0x00,0x80,
 0xd5,0x3a,0x00,0x00,0x00,0x00,0x00,0x00,0x00,0x00,0x00,0x00,0x00,0x00,0x00,
 0x00,0x00,0x00,0x00,0x00,0x00,0x00,0x00,0x00,0x00,0x00,0x00,0x00,0x00,0x00,
 0x00,0x00,0x00,0x00,0x00,0x00,0x00,0x00,0x00,0x00,0x00,0x00,0x00,0x00,0x00,
 0x00,0x00,0x00,0x00,0x00,0x00,0x00,0x00,0x00,0x00,0x00,0x00,0x00,0x55,0x35,
 0x00,0x00,0x00,0x00,0x00,0x00,0x00,0x00,0x00,0x00,0x00,0x00,0x00,0x00,0x00,
 0x00,0x00,0x00,0x00,0x00,0x00,0x00,0x00,0x00,0x00,0x00,0x00,0x00,0x00,0x00,
 0x00,0x00,0x00,0x00,0x00,0x00,0x00,0x00,0x00,0x00,0x00,0x00,0x00,0x00,0x00,
 0x00,0x00,0x00,0x00,0x00,0x00,0x00,0x00,0x00,0x00,0x00,0x55,0x3b,0x00,0x00,
 0x00,0x00,0x00,0x00,0x00,0x00,0x00,0x00,0x00,0x00,0x00,0x00,0x00,0x00,0x00,
 0x00,0x00,0x00,0x00,0x00,0x00,0x00,0x00,0x00,0x00,0x00,0x00,0x00,0x00,0x00,
 0x00,0x00,0x00,0x00,0x00,0x00,0x00,0x00,0x00,0x00,0x00,0x00,0x00,0x00,0x00,
 0x00,0x00,0x00,0x00,0x00,0x00,0x00,0x00,0x00,0x5a,0x35,0x00,0x00,0x00,0x00,
 0x00,0x00,0x00,0x00,0x00,0x00,0x00,0x00,0x00,0x00,0x00,0x00,0x00,0x00,0x00,
 0x00,0x00,0x00,0x00,0x00,0x00,0x00,0x00,0x00,0x00,0x00,0x00,0x00,0x00,0x00,
 0x00,0x00,0x00,0x00,0x00,0x00,0x00,0x00,0x00,0x00,0x00,0x00,0x00,0x00,0x00,
 0x00,0x00,0x00,0x00,0x00,0x00,0x00,0xaa,0x3a,0x00,0x00,0x00,0x00,0x00,0x00,
 0x00,0x00,0x00,0x00,0x00,0x00,0x00,0x00,0x00,0x00,0x00,0x00,0x00,0x00,0x00,
 0x00,0x00,0x00,0x00,0x00,0x00,0x00,0x00,0x00,0x00,0x00,0x00,0x00,0x00,0x00,
 0x00,0x00,0x00,0x00,0x00,0x00,0x00,0x00,0x00,0x00,0x00,0x00,0x00,0x00,0x00,
 0x00,0x00,0x00,0x00,0x00,0x54,0x3d,0x00,0x00,0x00,0x00,0x00,0x00,0x00,0x00,
 0x00,0x00,0x00,0x00,0x00,0x00,0x00,0x00,0x00,0x00,0x00,0x00,0x00,0x00,0x00,
 0x00,0x00,0x00,0x00,0x00,0x00,0x00,0x00,0x00,0x00,0x00,0x00,0x00,0x00,0x00,
 0x00,0x00,0x00,0x00,0x00,0x00,0x00,0x00,0x00,0x00,0x00,0x00,0x00,0x00,0x00,
 0x00,0x00,0x00,0xd8,0x1a,0x00,0x00,0x00,0x00,0x00,0x00,0x00,0x00,0x00,0x00,
 0x00,0x00,0x00,0x00,0x00,0x00,0x00,0x00,0x00,0x00,0x00,0x00,0x00,0x00,0x00,
 0x00,0x00,0x00,0x00,0x00,0x00,0x00,0x00,0x00,0x00,0x00,0x00,0x00,0x00,0x00,
 0x00,0x00,0x00,0x00,0x00,0x00,0x00,0x00,0x00,0x00,0x00,0x00,0x00,0x00,0x00,
 0x00,0x50,0x1d,0x00,0x00,0x00,0x00,0x00,0x00,0x00,0x00,0x00,0x00,0x00,0x00,
 0x00,0x00,0x00,0x00,0x00,0x00,0x00,0x00,0x00,0x00,0x00,0x00,0x00,0x00,0x00,
 0x00,0x00,0x00,0x00,0x00,0x00,0x00,0x00,0x00,0x00,0x00,0x00,0x00,0x00,0x00,
 0x00,0x00,0x00,0x00,0x00,0x00,0x00,0x00,0x00,0x00,0x00,0x00,0x00,0x00,0xa0,
 0x1e,0x00,0x00,0x00,0x00,0x00,0x00,0x00,0x00,0x00,0x00,0x00,0x00,0x00,0x00,
 0x00,0x00,0x00,0x00,0x00,0x00,0x00,0x00,0x00,0x00,0x00,0x00,0x00,0x00,0x00,
 0x00,0x00,0x00,0x00,0x00,0x00,0x00,0x00,0x00,0x00,0x00,0x00,0x00,0x00,0x00,
 0x00,0x00,0x00,0x00,0x00,0x00,0x00,0x00,0x00,0x00,0x00,0x00,0xc0,0x0f,0x00,
 0x00,0x00,0x00,0x00,0x00,0x00,0x00,0x00,0x00,0x00,0x00,0x00,0x00,0x00,0x00,
 0x00,0x00,0x00,0x00,0x00,0x00,0x00,0x00,0x00,0x00,0x00,0x00,0x00,0x00,0x00,
 0x00,0x00,0x00,0x00,0x00,0x00,0x00,0x00,0x00,0x00};
