/* XPM */
static char * wl_summary_mark_as_important_up_xpm[] = {
"32 32 8 1",
" 	c #BEFBBEFBBEFB s backgroundToolBarColor",
".	c #000000000000",
"X	c #E79DCB2B9E79",
"o	c #CF3CBAEA9658",
"O	c #B6DAA6998617",
"+	c #FFFFFFFFFFFF",
"@	c #AEBAAEBAAEBA",
"#	c #69A68E38EFBE",
"                                ",
"        ..................      ",
"       ..XoooooooooooooooO.     ",
"       ..XoooooooooooooooO.     ",
"       ..Xoooooooooooooooo.     ",
"       .+.ooooooooooooooooO.    ",
"       .+.XoooooooooooooooO.    ",
"       .+.XoooooooooooooooO.    ",
"       .+.XooooooooooooooooO.   ",
"        .+.XoooooooooooooooO.   ",
"        .+.OOOOOOOOOOOOOOOOO.   ",
"        .+.................O.   ",
"        .+.@@@@@@@@@@@@@@@@..   ",
"         .+@+++++++++++++++@.   ",
"        .++@++++++++++++++++.   ",
"       .+++...@+++++++++++++.   ",
" #    .+++++.@++++++++++++++.   ",
" ##  .+++++.@@++++++++++++++.   ",
"  # .+++++.@@@+++++++++++++.    ",
"  ## .#++..................     ",
"   ####+.                       ",
"       .                        ",
"                                ",
"                                ",
"                      .         ",
"         .   .        .         ",
"         .. .. ..  . .. .       ",
"         . . .   . .. ..        ",
"         . . . ... .  ..        ",
"         . . . . . .  . .       ",
"         . . . .. ..  . .       ",
"                                "};
